  0
SECTION
  2
HEADER
  9
$ACADVER
  1
AC1024
  9
$INSUNITS
 70
4
  0
ENDSEC
  0
SECTION
  2
TABLES
  0
TABLE
  2
LAYER
  5
2
100
AcDbSymbolTable
 70
23
  0
LAYER
  5
21
100
AcDbSymbolTableRecord
100
AcDbLayerTableRecord
  2
0
 70
0
 62
7
  6
CONTINUOUS
370
0
  0
LAYER
  5
22
100
AcDbSymbolTableRecord
100
AcDbLayerTableRecord
  2
WALL_OUTLINE
 70
0
 62
1
  6
CONTINUOUS
370
0
  0
LAYER
  5
23
100
AcDbSymbolTableRecord
100
AcDbLayerTableRecord
  2
OPENINGS
 70
0
 62
1
  6
CONTINUOUS
370
0
  0
LAYER
  5
24
100
AcDbSymbolTableRecord
100
AcDbLayerTableRecord
  2
CABINETRY
 70
0
 62
1
  6
CONTINUOUS
370
0
  0
LAYER
  5
25
100
AcDbSymbolTableRecord
100
AcDbLayerTableRecord
  2
DIMENSIONS
 70
0
 62
1
  6
CONTINUOUS
370
0
  0
LAYER
  5
26
100
AcDbSymbolTableRecord
100
AcDbLayerTableRecord
  2
HATCH
 70
0
 62
8
  6
CONTINUOUS
370
0
  0
LAYER
  5
27
100
AcDbSymbolTableRecord
100
AcDbLayerTableRecord
  2
ANNOTATIONS
 70
0
 62
1
  6
CONTINUOUS
370
0
  0
LAYER
  5
28
100
AcDbSymbolTableRecord
100
AcDbLayerTableRecord
  2
REF_LINES
 70
0
 62
2
  6
DASHED
370
0
  0
LAYER
  5
29
100
AcDbSymbolTableRecord
100
AcDbLayerTableRecord
  2
TITLEBLOCK
 70
0
 62
4
  6
CONTINUOUS
370
0
  0
LAYER
  5
2A
100
AcDbSymbolTableRecord
100
AcDbLayerTableRecord
  2
GLASS
 70
0
 62
9
  6
CONTINUOUS
370
0
  0
LAYER
  5
2B
100
AcDbSymbolTableRecord
100
AcDbLayerTableRecord
  2
CANE
 70
0
 62
3
  6
CONTINUOUS
370
0
  0
LAYER
  5
2C
100
AcDbSymbolTableRecord
100
AcDbLayerTableRecord
  2
HANDLE
 70
0
 62
5
  6
CONTINUOUS
370
0
  0
LAYER
  5
2D
100
AcDbSymbolTableRecord
100
AcDbLayerTableRecord
  2
FRAME
 70
0
 62
6
  6
CONTINUOUS
370
0
  0
LAYER
  5
2E
100
AcDbSymbolTableRecord
100
AcDbLayerTableRecord
  2
RUG
 70
0
 62
7
  6
CONTINUOUS
370
0
  0
LAYER
  5
2F
100
AcDbSymbolTableRecord
100
AcDbLayerTableRecord
  2
AREA
 70
0
 62
7
  6
CONTINUOUS
370
0
  0
LAYER
  5
30
100
AcDbSymbolTableRecord
100
AcDbLayerTableRecord
  2
FURNITURE
 70
0
 62
7
  6
CONTINUOUS
370
0
  0
LAYER
  5
31
100
AcDbSymbolTableRecord
100
AcDbLayerTableRecord
  2
ROD
 70
0
 62
2
  6
CONTINUOUS
370
0
  0
LAYER
  5
32
100
AcDbSymbolTableRecord
100
AcDbLayerTableRecord
  2
DATUM
 70
0
 62
1
  6
CONTINUOUS
370
0
  0
LAYER
  5
33
100
AcDbSymbolTableRecord
100
AcDbLayerTableRecord
  2
SCHEDULE
 70
0
 62
4
  6
CONTINUOUS
370
0
  0
LAYER
  5
34
100
AcDbSymbolTableRecord
100
AcDbLayerTableRecord
  2
CNC_OUTLINE
 70
0
 62
4
  6
CONTINUOUS
370
0
  0
LAYER
  5
35
100
AcDbSymbolTableRecord
100
AcDbLayerTableRecord
  2
CNC_DRILL
 70
0
 62
1
  6
CONTINUOUS
370
0
  0
LAYER
  5
36
100
AcDbSymbolTableRecord
100
AcDbLayerTableRecord
  2
CNC_POCKET
 70
0
 62
5
  6
CONTINUOUS
370
0
  0
LAYER
  5
37
100
AcDbSymbolTableRecord
100
AcDbLayerTableRecord
  2
CNC_ENGRAVE
 70
0
 62
2
  6
CONTINUOUS
370
0
  0
ENDTAB
  0
ENDSEC
  0
SECTION
  2
ENTITIES
  0
LWPOLYLINE
  5
201
100
AcDbEntity
  8
WALL_OUTLINE
100
AcDbPolyline
 90
4.000
 70
1.000
 10
0.000
 20
75.000
 10
3003.000
 20
75.000
 10
3003.000
 20
-75.000
 10
0.000
 20
-75.000
  0
LWPOLYLINE
  5
202
100
AcDbEntity
  8
WALL_OUTLINE
100
AcDbPolyline
 90
4.000
 70
1.000
 10
2928.000
 20
0.000
 10
2928.000
 20
3490.000
 10
3078.000
 20
3490.000
 10
3078.000
 20
0.000
  0
LWPOLYLINE
  5
203
100
AcDbEntity
  8
WALL_OUTLINE
100
AcDbPolyline
 90
4.000
 70
1.000
 10
3003.000
 20
3415.000
 10
0.000
 20
3415.000
 10
0.000
 20
3565.000
 10
3003.000
 20
3565.000
  0
LWPOLYLINE
  5
204
100
AcDbEntity
  8
WALL_OUTLINE
100
AcDbPolyline
 90
4.000
 70
1.000
 10
75.000
 20
3490.000
 10
75.000
 20
0.000
 10
-75.000
 20
0.000
 10
-75.000
 20
3490.000
  0
LWPOLYLINE
  5
205
100
AcDbEntity
  8
WALL_OUTLINE
100
AcDbPolyline
 90
4.000
 70
1.000
 10
6700.000
 20
75.000
 10
9910.000
 20
75.000
 10
9910.000
 20
-75.000
 10
6700.000
 20
-75.000
  0
LWPOLYLINE
  5
206
100
AcDbEntity
  8
WALL_OUTLINE
100
AcDbPolyline
 90
4.000
 70
1.000
 10
9835.000
 20
0.000
 10
9835.000
 20
3005.000
 10
9985.000
 20
3005.000
 10
9985.000
 20
0.000
  0
LWPOLYLINE
  5
207
100
AcDbEntity
  8
WALL_OUTLINE
100
AcDbPolyline
 90
4.000
 70
1.000
 10
9910.000
 20
2930.000
 10
6700.000
 20
2930.000
 10
6700.000
 20
3080.000
 10
9910.000
 20
3080.000
  0
LWPOLYLINE
  5
208
100
AcDbEntity
  8
WALL_OUTLINE
100
AcDbPolyline
 90
4.000
 70
1.000
 10
6775.000
 20
3005.000
 10
6775.000
 20
0.000
 10
6625.000
 20
0.000
 10
6625.000
 20
3005.000
  0
LWPOLYLINE
  5
209
100
AcDbEntity
  8
WALL_OUTLINE
100
AcDbPolyline
 90
4.000
 70
1.000
 10
3003.000
 20
925.000
 10
4527.000
 20
925.000
 10
4527.000
 20
775.000
 10
3003.000
 20
775.000
  0
LWPOLYLINE
  5
20A
100
AcDbEntity
  8
WALL_OUTLINE
100
AcDbPolyline
 90
4.000
 70
1.000
 10
4452.000
 20
850.000
 10
4452.000
 20
3005.000
 10
4602.000
 20
3005.000
 10
4602.000
 20
850.000
  0
LWPOLYLINE
  5
20B
100
AcDbEntity
  8
WALL_OUTLINE
100
AcDbPolyline
 90
4.000
 70
1.000
 10
4527.000
 20
2930.000
 10
3003.000
 20
2930.000
 10
3003.000
 20
3080.000
 10
4527.000
 20
3080.000
  0
LWPOLYLINE
  5
20C
100
AcDbEntity
  8
WALL_OUTLINE
100
AcDbPolyline
 90
4.000
 70
1.000
 10
3078.000
 20
3005.000
 10
3078.000
 20
850.000
 10
2928.000
 20
850.000
 10
2928.000
 20
3005.000
  0
LWPOLYLINE
  5
20D
100
AcDbEntity
  8
WALL_OUTLINE
100
AcDbPolyline
 90
4.000
 70
1.000
 10
4527.000
 20
75.000
 10
6700.000
 20
75.000
 10
6700.000
 20
-75.000
 10
4527.000
 20
-75.000
  0
LWPOLYLINE
  5
20E
100
AcDbEntity
  8
WALL_OUTLINE
100
AcDbPolyline
 90
4.000
 70
1.000
 10
6700.000
 20
2930.000
 10
4527.000
 20
2930.000
 10
4527.000
 20
3080.000
 10
6700.000
 20
3080.000
  0
LWPOLYLINE
  5
20F
100
AcDbEntity
  8
WALL_OUTLINE
100
AcDbPolyline
 90
4.000
 70
1.000
 10
4602.000
 20
3005.000
 10
4602.000
 20
0.000
 10
4452.000
 20
0.000
 10
4452.000
 20
3005.000
  0
LWPOLYLINE
  5
210
100
AcDbEntity
  8
WALL_OUTLINE
100
AcDbPolyline
 90
4.000
 70
1.000
 10
0.000
 20
3565.000
 10
9910.000
 20
3565.000
 10
9910.000
 20
3415.000
 10
0.000
 20
3415.000
  0
LWPOLYLINE
  5
211
100
AcDbEntity
  8
WALL_OUTLINE
100
AcDbPolyline
 90
4.000
 70
1.000
 10
9835.000
 20
3490.000
 10
9835.000
 20
6745.000
 10
9985.000
 20
6745.000
 10
9985.000
 20
3490.000
  0
LWPOLYLINE
  5
212
100
AcDbEntity
  8
WALL_OUTLINE
100
AcDbPolyline
 90
4.000
 70
1.000
 10
9910.000
 20
6670.000
 10
0.000
 20
6670.000
 10
0.000
 20
6820.000
 10
9910.000
 20
6820.000
  0
LWPOLYLINE
  5
213
100
AcDbEntity
  8
WALL_OUTLINE
100
AcDbPolyline
 90
4.000
 70
1.000
 10
75.000
 20
6745.000
 10
75.000
 20
3490.000
 10
-75.000
 20
3490.000
 10
-75.000
 20
6745.000
  0
LWPOLYLINE
  5
214
100
AcDbEntity
  8
WALL_OUTLINE
100
AcDbPolyline
 90
4.000
 70
1.000
 10
0.000
 20
6820.000
 10
1800.000
 20
6820.000
 10
1800.000
 20
6670.000
 10
0.000
 20
6670.000
  0
LWPOLYLINE
  5
215
100
AcDbEntity
  8
WALL_OUTLINE
100
AcDbPolyline
 90
4.000
 70
1.000
 10
1725.000
 20
6745.000
 10
1725.000
 20
8203.000
 10
1875.000
 20
8203.000
 10
1875.000
 20
6745.000
  0
LWPOLYLINE
  5
216
100
AcDbEntity
  8
WALL_OUTLINE
100
AcDbPolyline
 90
4.000
 70
1.000
 10
1800.000
 20
8128.000
 10
0.000
 20
8128.000
 10
0.000
 20
8278.000
 10
1800.000
 20
8278.000
  0
LWPOLYLINE
  5
217
100
AcDbEntity
  8
WALL_OUTLINE
100
AcDbPolyline
 90
4.000
 70
1.000
 10
75.000
 20
8203.000
 10
75.000
 20
6745.000
 10
-75.000
 20
6745.000
 10
-75.000
 20
8203.000
  0
LWPOLYLINE
  5
218
100
AcDbEntity
  8
WALL_OUTLINE
100
AcDbPolyline
 90
4.000
 70
1.000
 10
2705.000
 20
6820.000
 10
5091.000
 20
6820.000
 10
5091.000
 20
6670.000
 10
2705.000
 20
6670.000
  0
LWPOLYLINE
  5
219
100
AcDbEntity
  8
WALL_OUTLINE
100
AcDbPolyline
 90
4.000
 70
1.000
 10
5016.000
 20
6745.000
 10
5016.000
 20
9693.000
 10
5166.000
 20
9693.000
 10
5166.000
 20
6745.000
  0
LWPOLYLINE
  5
21A
100
AcDbEntity
  8
WALL_OUTLINE
100
AcDbPolyline
 90
4.000
 70
1.000
 10
5091.000
 20
9618.000
 10
2705.000
 20
9618.000
 10
2705.000
 20
9768.000
 10
5091.000
 20
9768.000
  0
LWPOLYLINE
  5
21B
100
AcDbEntity
  8
WALL_OUTLINE
100
AcDbPolyline
 90
4.000
 70
1.000
 10
2780.000
 20
9693.000
 10
2780.000
 20
6745.000
 10
2630.000
 20
6745.000
 10
2630.000
 20
9693.000
  0
LWPOLYLINE
  5
21C
100
AcDbEntity
  8
WALL_OUTLINE
100
AcDbPolyline
 90
4.000
 70
1.000
 10
5091.000
 20
6820.000
 10
6395.000
 20
6820.000
 10
6395.000
 20
6670.000
 10
5091.000
 20
6670.000
  0
LWPOLYLINE
  5
21D
100
AcDbEntity
  8
WALL_OUTLINE
100
AcDbPolyline
 90
4.000
 70
1.000
 10
6320.000
 20
6745.000
 10
6320.000
 20
8909.000
 10
6470.000
 20
8909.000
 10
6470.000
 20
6745.000
  0
LWPOLYLINE
  5
21E
100
AcDbEntity
  8
WALL_OUTLINE
100
AcDbPolyline
 90
4.000
 70
1.000
 10
6395.000
 20
8834.000
 10
5091.000
 20
8834.000
 10
5091.000
 20
8984.000
 10
6395.000
 20
8984.000
  0
LWPOLYLINE
  5
21F
100
AcDbEntity
  8
WALL_OUTLINE
100
AcDbPolyline
 90
4.000
 70
1.000
 10
5166.000
 20
8909.000
 10
5166.000
 20
6745.000
 10
5016.000
 20
6745.000
 10
5016.000
 20
8909.000
  0
LWPOLYLINE
  5
220
100
AcDbEntity
  8
WALL_OUTLINE
100
AcDbPolyline
 90
4.000
 70
1.000
 10
6395.000
 20
6820.000
 10
9955.000
 20
6820.000
 10
9955.000
 20
6670.000
 10
6395.000
 20
6670.000
  0
LWPOLYLINE
  5
221
100
AcDbEntity
  8
WALL_OUTLINE
100
AcDbPolyline
 90
4.000
 70
1.000
 10
9880.000
 20
6745.000
 10
9880.000
 20
9745.000
 10
10030.000
 20
9745.000
 10
10030.000
 20
6745.000
  0
LWPOLYLINE
  5
222
100
AcDbEntity
  8
WALL_OUTLINE
100
AcDbPolyline
 90
4.000
 70
1.000
 10
9955.000
 20
9670.000
 10
6395.000
 20
9670.000
 10
6395.000
 20
9820.000
 10
9955.000
 20
9820.000
  0
LWPOLYLINE
  5
223
100
AcDbEntity
  8
WALL_OUTLINE
100
AcDbPolyline
 90
4.000
 70
1.000
 10
6470.000
 20
9745.000
 10
6470.000
 20
6745.000
 10
6320.000
 20
6745.000
 10
6320.000
 20
9745.000
  0
LWPOLYLINE
  5
224
100
AcDbEntity
  8
WALL_OUTLINE
100
AcDbPolyline
 90
4.000
 70
1.000
 10
7800.000
 20
3565.000
 10
9910.000
 20
3565.000
 10
9910.000
 20
3415.000
 10
7800.000
 20
3415.000
  0
LWPOLYLINE
  5
225
100
AcDbEntity
  8
WALL_OUTLINE
100
AcDbPolyline
 90
4.000
 70
1.000
 10
9835.000
 20
3490.000
 10
9835.000
 20
5884.000
 10
9985.000
 20
5884.000
 10
9985.000
 20
3490.000
  0
LWPOLYLINE
  5
226
100
AcDbEntity
  8
WALL_OUTLINE
100
AcDbPolyline
 90
4.000
 70
1.000
 10
9910.000
 20
5809.000
 10
7800.000
 20
5809.000
 10
7800.000
 20
5959.000
 10
9910.000
 20
5959.000
  0
LWPOLYLINE
  5
227
100
AcDbEntity
  8
WALL_OUTLINE
100
AcDbPolyline
 90
4.000
 70
1.000
 10
7875.000
 20
5884.000
 10
7875.000
 20
3490.000
 10
7725.000
 20
3490.000
 10
7725.000
 20
5884.000
  0
LWPOLYLINE
  5
228
100
AcDbEntity
  8
WALL_OUTLINE
100
AcDbPolyline
 90
4.000
 70
1.000
 10
0.000
 20
0.000
 10
3003.000
 20
0.000
 10
3003.000
 20
3490.000
 10
0.000
 20
3490.000
  0
TEXT
  5
229
100
AcDbEntity
  8
ANNOTATIONS
100
AcDbText
 10
1501.500
 20
1845.000
 30
0.000
 40
120.000
  1
M. BEDROOM - 01
 72
1.000
 11
1501.500
 21
1845.000
 31
0.000
  0
TEXT
  5
22A
100
AcDbEntity
  8
ANNOTATIONS
100
AcDbText
 10
1501.500
 20
1665.000
 30
0.000
 40
80.000
  1
3003 X 3490 MM  (10.5 SQ.M)
 72
1.000
 11
1501.500
 21
1665.000
 31
0.000
  0
LWPOLYLINE
  5
22B
100
AcDbEntity
  8
WALL_OUTLINE
100
AcDbPolyline
 90
4.000
 70
1.000
 10
6700.000
 20
0.000
 10
9910.000
 20
0.000
 10
9910.000
 20
3005.000
 10
6700.000
 20
3005.000
  0
TEXT
  5
22C
100
AcDbEntity
  8
ANNOTATIONS
100
AcDbText
 10
8305.000
 20
1602.500
 30
0.000
 40
120.000
  1
BEDROOM - 03
 72
1.000
 11
8305.000
 21
1602.500
 31
0.000
  0
TEXT
  5
22D
100
AcDbEntity
  8
ANNOTATIONS
100
AcDbText
 10
8305.000
 20
1422.500
 30
0.000
 40
80.000
  1
3210 X 3005 MM  (9.6 SQ.M)
 72
1.000
 11
8305.000
 21
1422.500
 31
0.000
  0
LWPOLYLINE
  5
22E
100
AcDbEntity
  8
WALL_OUTLINE
100
AcDbPolyline
 90
4.000
 70
1.000
 10
3003.000
 20
850.000
 10
4527.000
 20
850.000
 10
4527.000
 20
3005.000
 10
3003.000
 20
3005.000
  0
TEXT
  5
22F
100
AcDbEntity
  8
ANNOTATIONS
100
AcDbText
 10
3765.000
 20
2027.500
 30
0.000
 40
120.000
  1
TOILET
 72
1.000
 11
3765.000
 21
2027.500
 31
0.000
  0
TEXT
  5
230
100
AcDbEntity
  8
ANNOTATIONS
100
AcDbText
 10
3765.000
 20
1847.500
 30
0.000
 40
80.000
  1
1524 X 2155 MM  (3.3 SQ.M)
 72
1.000
 11
3765.000
 21
1847.500
 31
0.000
  0
LWPOLYLINE
  5
231
100
AcDbEntity
  8
WALL_OUTLINE
100
AcDbPolyline
 90
4.000
 70
1.000
 10
4527.000
 20
0.000
 10
6700.000
 20
0.000
 10
6700.000
 20
3005.000
 10
4527.000
 20
3005.000
  0
TEXT
  5
232
100
AcDbEntity
  8
ANNOTATIONS
100
AcDbText
 10
5613.500
 20
1602.500
 30
0.000
 40
120.000
  1
STAIRCASE
 72
1.000
 11
5613.500
 21
1602.500
 31
0.000
  0
TEXT
  5
233
100
AcDbEntity
  8
ANNOTATIONS
100
AcDbText
 10
5613.500
 20
1422.500
 30
0.000
 40
80.000
  1
2173 X 3005 MM  (6.5 SQ.M)
 72
1.000
 11
5613.500
 21
1422.500
 31
0.000
  0
LWPOLYLINE
  5
234
100
AcDbEntity
  8
WALL_OUTLINE
100
AcDbPolyline
 90
4.000
 70
1.000
 10
0.000
 20
3490.000
 10
9910.000
 20
3490.000
 10
9910.000
 20
6745.000
 10
0.000
 20
6745.000
  0
TEXT
  5
235
100
AcDbEntity
  8
ANNOTATIONS
100
AcDbText
 10
4955.000
 20
5217.500
 30
0.000
 40
120.000
  1
LIVING - DINING
 72
1.000
 11
4955.000
 21
5217.500
 31
0.000
  0
TEXT
  5
236
100
AcDbEntity
  8
ANNOTATIONS
100
AcDbText
 10
4955.000
 20
5037.500
 30
0.000
 40
80.000
  1
9910 X 3255 MM  (32.3 SQ.M)
 72
1.000
 11
4955.000
 21
5037.500
 31
0.000
  0
LWPOLYLINE
  5
237
100
AcDbEntity
  8
WALL_OUTLINE
100
AcDbPolyline
 90
4.000
 70
1.000
 10
0.000
 20
6745.000
 10
1800.000
 20
6745.000
 10
1800.000
 20
8203.000
 10
0.000
 20
8203.000
  0
TEXT
  5
238
100
AcDbEntity
  8
ANNOTATIONS
100
AcDbText
 10
900.000
 20
7574.000
 30
0.000
 40
120.000
  1
UTILITY
 72
1.000
 11
900.000
 21
7574.000
 31
0.000
  0
TEXT
  5
239
100
AcDbEntity
  8
ANNOTATIONS
100
AcDbText
 10
900.000
 20
7394.000
 30
0.000
 40
80.000
  1
1800 X 1458 MM  (2.6 SQ.M)
 72
1.000
 11
900.000
 21
7394.000
 31
0.000
  0
LWPOLYLINE
  5
23A
100
AcDbEntity
  8
WALL_OUTLINE
100
AcDbPolyline
 90
4.000
 70
1.000
 10
2705.000
 20
6745.000
 10
5091.000
 20
6745.000
 10
5091.000
 20
9693.000
 10
2705.000
 20
9693.000
  0
TEXT
  5
23B
100
AcDbEntity
  8
ANNOTATIONS
100
AcDbText
 10
3898.000
 20
8319.000
 30
0.000
 40
120.000
  1
KITCHEN
 72
1.000
 11
3898.000
 21
8319.000
 31
0.000
  0
TEXT
  5
23C
100
AcDbEntity
  8
ANNOTATIONS
100
AcDbText
 10
3898.000
 20
8139.000
 30
0.000
 40
80.000
  1
2386 X 2948 MM  (7.0 SQ.M)
 72
1.000
 11
3898.000
 21
8139.000
 31
0.000
  0
LWPOLYLINE
  5
23D
100
AcDbEntity
  8
WALL_OUTLINE
100
AcDbPolyline
 90
4.000
 70
1.000
 10
5091.000
 20
6745.000
 10
6395.000
 20
6745.000
 10
6395.000
 20
8909.000
 10
5091.000
 20
8909.000
  0
TEXT
  5
23E
100
AcDbEntity
  8
ANNOTATIONS
100
AcDbText
 10
5743.000
 20
7927.000
 30
0.000
 40
120.000
  1
TOILET
 72
1.000
 11
5743.000
 21
7927.000
 31
0.000
  0
TEXT
  5
23F
100
AcDbEntity
  8
ANNOTATIONS
100
AcDbText
 10
5743.000
 20
7747.000
 30
0.000
 40
80.000
  1
1304 X 2164 MM  (2.8 SQ.M)
 72
1.000
 11
5743.000
 21
7747.000
 31
0.000
  0
LWPOLYLINE
  5
240
100
AcDbEntity
  8
WALL_OUTLINE
100
AcDbPolyline
 90
4.000
 70
1.000
 10
6395.000
 20
6745.000
 10
9955.000
 20
6745.000
 10
9955.000
 20
9745.000
 10
6395.000
 20
9745.000
  0
TEXT
  5
241
100
AcDbEntity
  8
ANNOTATIONS
100
AcDbText
 10
8175.000
 20
8345.000
 30
0.000
 40
120.000
  1
BEDROOM - 02
 72
1.000
 11
8175.000
 21
8345.000
 31
0.000
  0
TEXT
  5
242
100
AcDbEntity
  8
ANNOTATIONS
100
AcDbText
 10
8175.000
 20
8165.000
 30
0.000
 40
80.000
  1
3560 X 3000 MM  (10.7 SQ.M)
 72
1.000
 11
8175.000
 21
8165.000
 31
0.000
  0
LWPOLYLINE
  5
243
100
AcDbEntity
  8
WALL_OUTLINE
100
AcDbPolyline
 90
4.000
 70
1.000
 10
7800.000
 20
3490.000
 10
9910.000
 20
3490.000
 10
9910.000
 20
5884.000
 10
7800.000
 20
5884.000
  0
TEXT
  5
244
100
AcDbEntity
  8
ANNOTATIONS
100
AcDbText
 10
8855.000
 20
4787.000
 30
0.000
 40
120.000
  1
BALCONY
 72
1.000
 11
8855.000
 21
4787.000
 31
0.000
  0
TEXT
  5
245
100
AcDbEntity
  8
ANNOTATIONS
100
AcDbText
 10
8855.000
 20
4607.000
 30
0.000
 40
80.000
  1
2110 X 2394 MM  (5.1 SQ.M)
 72
1.000
 11
8855.000
 21
4607.000
 31
0.000
  0
LINE
  5
246
100
AcDbEntity
  8
OPENINGS
100
AcDbLine
 10
0.000
 20
5000.000
 30
0.000
 11
1000.000
 21
5000.000
 31
0.000
  0
ARC
  5
247
100
AcDbEntity
  8
OPENINGS
100
AcDbCircle
 10
0.000
 20
5000.000
 30
0.000
 40
1000.000
100
AcDbArc
 50
90.000
 51
180.000
  0
LINE
  5
248
100
AcDbEntity
  8
OPENINGS
100
AcDbLine
 10
3003.000
 20
3200.000
 30
0.000
 11
2103.000
 21
3200.000
 31
0.000
  0
ARC
  5
249
100
AcDbEntity
  8
OPENINGS
100
AcDbCircle
 10
3003.000
 20
3200.000
 30
0.000
 40
900.000
100
AcDbArc
 50
0.000
 51
90.000
  0
LINE
  5
24A
100
AcDbEntity
  8
OPENINGS
100
AcDbLine
 10
3003.000
 20
1200.000
 30
0.000
 11
2253.000
 21
1200.000
 31
0.000
  0
ARC
  5
24B
100
AcDbEntity
  8
OPENINGS
100
AcDbCircle
 10
3003.000
 20
1200.000
 30
0.000
 40
750.000
100
AcDbArc
 50
0.000
 51
90.000
  0
LINE
  5
24C
100
AcDbEntity
  8
OPENINGS
100
AcDbLine
 10
6700.000
 20
2800.000
 30
0.000
 11
5800.000
 21
2800.000
 31
0.000
  0
ARC
  5
24D
100
AcDbEntity
  8
OPENINGS
100
AcDbCircle
 10
6700.000
 20
2800.000
 30
0.000
 40
900.000
100
AcDbArc
 50
0.000
 51
90.000
  0
LINE
  5
24E
100
AcDbEntity
  8
OPENINGS
100
AcDbLine
 10
6500.000
 20
6745.000
 30
0.000
 11
7400.000
 21
6745.000
 31
0.000
  0
ARC
  5
24F
100
AcDbEntity
  8
OPENINGS
100
AcDbCircle
 10
6500.000
 20
6745.000
 30
0.000
 40
900.000
100
AcDbArc
 50
90.000
 51
180.000
  0
LINE
  5
250
100
AcDbEntity
  8
OPENINGS
100
AcDbLine
 10
5200.000
 20
6745.000
 30
0.000
 11
5950.000
 21
6745.000
 31
0.000
  0
ARC
  5
251
100
AcDbEntity
  8
OPENINGS
100
AcDbCircle
 10
5200.000
 20
6745.000
 30
0.000
 40
750.000
100
AcDbArc
 50
90.000
 51
180.000
  0
LINE
  5
252
100
AcDbEntity
  8
OPENINGS
100
AcDbLine
 10
3500.000
 20
6745.000
 30
0.000
 11
3500.000
 21
7645.000
 31
0.000
  0
ARC
  5
253
100
AcDbEntity
  8
OPENINGS
100
AcDbCircle
 10
3500.000
 20
6745.000
 30
0.000
 40
900.000
100
AcDbArc
 50
270.000
 51
360.000
  0
LINE
  5
254
100
AcDbEntity
  8
OPENINGS
100
AcDbLine
 10
-42.426
 20
842.426
 30
0.000
 11
1357.574
 21
2242.426
 31
0.000
  0
LINE
  5
255
100
AcDbEntity
  8
OPENINGS
100
AcDbLine
 10
42.426
 20
757.574
 30
0.000
 11
1442.426
 21
2157.574
 31
0.000
  0
LINE
  5
256
100
AcDbEntity
  8
OPENINGS
100
AcDbLine
 10
0.000
 20
800.000
 30
0.000
 11
1400.000
 21
2200.000
 31
0.000
  0
LINE
  5
257
100
AcDbEntity
  8
OPENINGS
100
AcDbLine
 10
-40.000
 20
760.000
 30
0.000
 11
40.000
 21
840.000
 31
0.000
  0
LINE
  5
258
100
AcDbEntity
  8
OPENINGS
100
AcDbLine
 10
1360.000
 20
2160.000
 30
0.000
 11
1440.000
 21
2240.000
 31
0.000
  0
LINE
  5
259
100
AcDbEntity
  8
OPENINGS
100
AcDbLine
 10
9850.000
 20
800.000
 30
0.000
 11
9850.000
 21
2200.000
 31
0.000
  0
LINE
  5
25A
100
AcDbEntity
  8
OPENINGS
100
AcDbLine
 10
9970.000
 20
800.000
 30
0.000
 11
9970.000
 21
2200.000
 31
0.000
  0
LINE
  5
25B
100
AcDbEntity
  8
OPENINGS
100
AcDbLine
 10
9910.000
 20
800.000
 30
0.000
 11
9910.000
 21
2200.000
 31
0.000
  0
LINE
  5
25C
100
AcDbEntity
  8
OPENINGS
100
AcDbLine
 10
9870.000
 20
760.000
 30
0.000
 11
9950.000
 21
840.000
 31
0.000
  0
LINE
  5
25D
100
AcDbEntity
  8
OPENINGS
100
AcDbLine
 10
9870.000
 20
2160.000
 30
0.000
 11
9950.000
 21
2240.000
 31
0.000
  0
LINE
  5
25E
100
AcDbEntity
  8
OPENINGS
100
AcDbLine
 10
7000.000
 20
9805.000
 30
0.000
 11
8500.000
 21
9805.000
 31
0.000
  0
LINE
  5
25F
100
AcDbEntity
  8
OPENINGS
100
AcDbLine
 10
7000.000
 20
9685.000
 30
0.000
 11
8500.000
 21
9685.000
 31
0.000
  0
LINE
  5
260
100
AcDbEntity
  8
OPENINGS
100
AcDbLine
 10
7000.000
 20
9745.000
 30
0.000
 11
8500.000
 21
9745.000
 31
0.000
  0
LINE
  5
261
100
AcDbEntity
  8
OPENINGS
100
AcDbLine
 10
6960.000
 20
9705.000
 30
0.000
 11
7040.000
 21
9785.000
 31
0.000
  0
LINE
  5
262
100
AcDbEntity
  8
OPENINGS
100
AcDbLine
 10
8460.000
 20
9705.000
 30
0.000
 11
8540.000
 21
9785.000
 31
0.000
  0
LINE
  5
263
100
AcDbEntity
  8
OPENINGS
100
AcDbLine
 10
3200.000
 20
9753.000
 30
0.000
 11
4400.000
 21
9753.000
 31
0.000
  0
LINE
  5
264
100
AcDbEntity
  8
OPENINGS
100
AcDbLine
 10
3200.000
 20
9633.000
 30
0.000
 11
4400.000
 21
9633.000
 31
0.000
  0
LINE
  5
265
100
AcDbEntity
  8
OPENINGS
100
AcDbLine
 10
3200.000
 20
9693.000
 30
0.000
 11
4400.000
 21
9693.000
 31
0.000
  0
LINE
  5
266
100
AcDbEntity
  8
OPENINGS
100
AcDbLine
 10
3160.000
 20
9653.000
 30
0.000
 11
3240.000
 21
9733.000
 31
0.000
  0
LINE
  5
267
100
AcDbEntity
  8
OPENINGS
100
AcDbLine
 10
4360.000
 20
9653.000
 30
0.000
 11
4440.000
 21
9733.000
 31
0.000
  0
LINE
  5
268
100
AcDbEntity
  8
DIMENSIONS
100
AcDbLine
 10
0.000
 20
0.000
 30
0.000
 11
0.000
 21
-400.000
 31
0.000
  0
LINE
  5
269
100
AcDbEntity
  8
DIMENSIONS
100
AcDbLine
 10
3003.000
 20
0.000
 30
0.000
 11
3003.000
 21
-400.000
 31
0.000
  0
LINE
  5
26A
100
AcDbEntity
  8
DIMENSIONS
100
AcDbLine
 10
0.000
 20
-400.000
 30
0.000
 11
3003.000
 21
-400.000
 31
0.000
  0
LINE
  5
26B
100
AcDbEntity
  8
DIMENSIONS
100
AcDbLine
 10
-60.000
 20
-460.000
 30
0.000
 11
60.000
 21
-340.000
 31
0.000
  0
LINE
  5
26C
100
AcDbEntity
  8
DIMENSIONS
100
AcDbLine
 10
2943.000
 20
-460.000
 30
0.000
 11
3063.000
 21
-340.000
 31
0.000
  0
TEXT
  5
26D
100
AcDbEntity
  8
DIMENSIONS
100
AcDbText
 10
1501.500
 20
-560.000
 30
0.000
 40
80.000
  1
3003
 72
1.000
 11
1501.500
 21
-560.000
 31
0.000
  0
LINE
  5
26E
100
AcDbEntity
  8
DIMENSIONS
100
AcDbLine
 10
3003.000
 20
0.000
 30
0.000
 11
3003.000
 21
-400.000
 31
0.000
  0
LINE
  5
26F
100
AcDbEntity
  8
DIMENSIONS
100
AcDbLine
 10
4527.000
 20
0.000
 30
0.000
 11
4527.000
 21
-400.000
 31
0.000
  0
LINE
  5
270
100
AcDbEntity
  8
DIMENSIONS
100
AcDbLine
 10
3003.000
 20
-400.000
 30
0.000
 11
4527.000
 21
-400.000
 31
0.000
  0
LINE
  5
271
100
AcDbEntity
  8
DIMENSIONS
100
AcDbLine
 10
2943.000
 20
-460.000
 30
0.000
 11
3063.000
 21
-340.000
 31
0.000
  0
LINE
  5
272
100
AcDbEntity
  8
DIMENSIONS
100
AcDbLine
 10
4467.000
 20
-460.000
 30
0.000
 11
4587.000
 21
-340.000
 31
0.000
  0
TEXT
  5
273
100
AcDbEntity
  8
DIMENSIONS
100
AcDbText
 10
3765.000
 20
-560.000
 30
0.000
 40
80.000
  1
1524
 72
1.000
 11
3765.000
 21
-560.000
 31
0.000
  0
LINE
  5
274
100
AcDbEntity
  8
DIMENSIONS
100
AcDbLine
 10
4527.000
 20
0.000
 30
0.000
 11
4527.000
 21
-400.000
 31
0.000
  0
LINE
  5
275
100
AcDbEntity
  8
DIMENSIONS
100
AcDbLine
 10
6700.000
 20
0.000
 30
0.000
 11
6700.000
 21
-400.000
 31
0.000
  0
LINE
  5
276
100
AcDbEntity
  8
DIMENSIONS
100
AcDbLine
 10
4527.000
 20
-400.000
 30
0.000
 11
6700.000
 21
-400.000
 31
0.000
  0
LINE
  5
277
100
AcDbEntity
  8
DIMENSIONS
100
AcDbLine
 10
4467.000
 20
-460.000
 30
0.000
 11
4587.000
 21
-340.000
 31
0.000
  0
LINE
  5
278
100
AcDbEntity
  8
DIMENSIONS
100
AcDbLine
 10
6640.000
 20
-460.000
 30
0.000
 11
6760.000
 21
-340.000
 31
0.000
  0
TEXT
  5
279
100
AcDbEntity
  8
DIMENSIONS
100
AcDbText
 10
5613.500
 20
-560.000
 30
0.000
 40
80.000
  1
2173
 72
1.000
 11
5613.500
 21
-560.000
 31
0.000
  0
LINE
  5
27A
100
AcDbEntity
  8
DIMENSIONS
100
AcDbLine
 10
6700.000
 20
0.000
 30
0.000
 11
6700.000
 21
-400.000
 31
0.000
  0
LINE
  5
27B
100
AcDbEntity
  8
DIMENSIONS
100
AcDbLine
 10
9955.000
 20
0.000
 30
0.000
 11
9955.000
 21
-400.000
 31
0.000
  0
LINE
  5
27C
100
AcDbEntity
  8
DIMENSIONS
100
AcDbLine
 10
6700.000
 20
-400.000
 30
0.000
 11
9955.000
 21
-400.000
 31
0.000
  0
LINE
  5
27D
100
AcDbEntity
  8
DIMENSIONS
100
AcDbLine
 10
6640.000
 20
-460.000
 30
0.000
 11
6760.000
 21
-340.000
 31
0.000
  0
LINE
  5
27E
100
AcDbEntity
  8
DIMENSIONS
100
AcDbLine
 10
9895.000
 20
-460.000
 30
0.000
 11
10015.000
 21
-340.000
 31
0.000
  0
TEXT
  5
27F
100
AcDbEntity
  8
DIMENSIONS
100
AcDbText
 10
8327.500
 20
-560.000
 30
0.000
 40
80.000
  1
3210
 72
1.000
 11
8327.500
 21
-560.000
 31
0.000
  0
LINE
  5
280
100
AcDbEntity
  8
DIMENSIONS
100
AcDbLine
 10
0.000
 20
0.000
 30
0.000
 11
0.000
 21
-800.000
 31
0.000
  0
LINE
  5
281
100
AcDbEntity
  8
DIMENSIONS
100
AcDbLine
 10
9955.000
 20
0.000
 30
0.000
 11
9955.000
 21
-800.000
 31
0.000
  0
LINE
  5
282
100
AcDbEntity
  8
DIMENSIONS
100
AcDbLine
 10
0.000
 20
-800.000
 30
0.000
 11
9955.000
 21
-800.000
 31
0.000
  0
LINE
  5
283
100
AcDbEntity
  8
DIMENSIONS
100
AcDbLine
 10
-60.000
 20
-860.000
 30
0.000
 11
60.000
 21
-740.000
 31
0.000
  0
LINE
  5
284
100
AcDbEntity
  8
DIMENSIONS
100
AcDbLine
 10
9895.000
 20
-860.000
 30
0.000
 11
10015.000
 21
-740.000
 31
0.000
  0
TEXT
  5
285
100
AcDbEntity
  8
DIMENSIONS
100
AcDbText
 10
4977.500
 20
-960.000
 30
0.000
 40
80.000
  1
9955
 72
1.000
 11
4977.500
 21
-960.000
 31
0.000
  0
LINE
  5
286
100
AcDbEntity
  8
DIMENSIONS
100
AcDbLine
 10
9955.000
 20
0.000
 30
0.000
 11
10355.000
 21
0.000
 31
0.000
  0
LINE
  5
287
100
AcDbEntity
  8
DIMENSIONS
100
AcDbLine
 10
9955.000
 20
3005.000
 30
0.000
 11
10355.000
 21
3005.000
 31
0.000
  0
LINE
  5
288
100
AcDbEntity
  8
DIMENSIONS
100
AcDbLine
 10
10355.000
 20
0.000
 30
0.000
 11
10355.000
 21
3005.000
 31
0.000
  0
LINE
  5
289
100
AcDbEntity
  8
DIMENSIONS
100
AcDbLine
 10
10295.000
 20
-60.000
 30
0.000
 11
10415.000
 21
60.000
 31
0.000
  0
LINE
  5
28A
100
AcDbEntity
  8
DIMENSIONS
100
AcDbLine
 10
10295.000
 20
2945.000
 30
0.000
 11
10415.000
 21
3065.000
 31
0.000
  0
TEXT
  5
28B
100
AcDbEntity
  8
DIMENSIONS
100
AcDbText
 10
10435.000
 20
1502.500
 30
0.000
 40
80.000
  1
3005
 72
1.000
 11
10435.000
 21
1502.500
 31
0.000
  0
LINE
  5
28C
100
AcDbEntity
  8
DIMENSIONS
100
AcDbLine
 10
9955.000
 20
3005.000
 30
0.000
 11
10355.000
 21
3005.000
 31
0.000
  0
LINE
  5
28D
100
AcDbEntity
  8
DIMENSIONS
100
AcDbLine
 10
9955.000
 20
6745.000
 30
0.000
 11
10355.000
 21
6745.000
 31
0.000
  0
LINE
  5
28E
100
AcDbEntity
  8
DIMENSIONS
100
AcDbLine
 10
10355.000
 20
3005.000
 30
0.000
 11
10355.000
 21
6745.000
 31
0.000
  0
LINE
  5
28F
100
AcDbEntity
  8
DIMENSIONS
100
AcDbLine
 10
10295.000
 20
2945.000
 30
0.000
 11
10415.000
 21
3065.000
 31
0.000
  0
LINE
  5
290
100
AcDbEntity
  8
DIMENSIONS
100
AcDbLine
 10
10295.000
 20
6685.000
 30
0.000
 11
10415.000
 21
6805.000
 31
0.000
  0
TEXT
  5
291
100
AcDbEntity
  8
DIMENSIONS
100
AcDbText
 10
10435.000
 20
4875.000
 30
0.000
 40
80.000
  1
3740
 72
1.000
 11
10435.000
 21
4875.000
 31
0.000
  0
LINE
  5
292
100
AcDbEntity
  8
DIMENSIONS
100
AcDbLine
 10
9955.000
 20
6745.000
 30
0.000
 11
10355.000
 21
6745.000
 31
0.000
  0
LINE
  5
293
100
AcDbEntity
  8
DIMENSIONS
100
AcDbLine
 10
9955.000
 20
9745.000
 30
0.000
 11
10355.000
 21
9745.000
 31
0.000
  0
LINE
  5
294
100
AcDbEntity
  8
DIMENSIONS
100
AcDbLine
 10
10355.000
 20
6745.000
 30
0.000
 11
10355.000
 21
9745.000
 31
0.000
  0
LINE
  5
295
100
AcDbEntity
  8
DIMENSIONS
100
AcDbLine
 10
10295.000
 20
6685.000
 30
0.000
 11
10415.000
 21
6805.000
 31
0.000
  0
LINE
  5
296
100
AcDbEntity
  8
DIMENSIONS
100
AcDbLine
 10
10295.000
 20
9685.000
 30
0.000
 11
10415.000
 21
9805.000
 31
0.000
  0
TEXT
  5
297
100
AcDbEntity
  8
DIMENSIONS
100
AcDbText
 10
10435.000
 20
8245.000
 30
0.000
 40
80.000
  1
3000
 72
1.000
 11
10435.000
 21
8245.000
 31
0.000
  0
LINE
  5
298
100
AcDbEntity
  8
DIMENSIONS
100
AcDbLine
 10
9955.000
 20
0.000
 30
0.000
 11
10755.000
 21
0.000
 31
0.000
  0
LINE
  5
299
100
AcDbEntity
  8
DIMENSIONS
100
AcDbLine
 10
9955.000
 20
9745.000
 30
0.000
 11
10755.000
 21
9745.000
 31
0.000
  0
LINE
  5
29A
100
AcDbEntity
  8
DIMENSIONS
100
AcDbLine
 10
10755.000
 20
0.000
 30
0.000
 11
10755.000
 21
9745.000
 31
0.000
  0
LINE
  5
29B
100
AcDbEntity
  8
DIMENSIONS
100
AcDbLine
 10
10695.000
 20
-60.000
 30
0.000
 11
10815.000
 21
60.000
 31
0.000
  0
LINE
  5
29C
100
AcDbEntity
  8
DIMENSIONS
100
AcDbLine
 10
10695.000
 20
9685.000
 30
0.000
 11
10815.000
 21
9805.000
 31
0.000
  0
TEXT
  5
29D
100
AcDbEntity
  8
DIMENSIONS
100
AcDbText
 10
10835.000
 20
4872.500
 30
0.000
 40
80.000
  1
9745
 72
1.000
 11
10835.000
 21
4872.500
 31
0.000
  0
LINE
  5
29E
100
AcDbEntity
  8
TITLEBLOCK
100
AcDbLine
 10
0.000
 20
-1600.000
 30
0.000
 11
4000.000
 21
-1600.000
 31
0.000
  0
LINE
  5
29F
100
AcDbEntity
  8
TITLEBLOCK
100
AcDbLine
 10
4000.000
 20
-1600.000
 30
0.000
 11
4000.000
 21
-600.000
 31
0.000
  0
LINE
  5
2A0
100
AcDbEntity
  8
TITLEBLOCK
100
AcDbLine
 10
4000.000
 20
-600.000
 30
0.000
 11
0.000
 21
-600.000
 31
0.000
  0
LINE
  5
2A1
100
AcDbEntity
  8
TITLEBLOCK
100
AcDbLine
 10
0.000
 20
-600.000
 30
0.000
 11
0.000
 21
-1600.000
 31
0.000
  0
LINE
  5
2A2
100
AcDbEntity
  8
TITLEBLOCK
100
AcDbLine
 10
2400.000
 20
-1600.000
 30
0.000
 11
2400.000
 21
-600.000
 31
0.000
  0
TEXT
  5
2A3
100
AcDbEntity
  8
TITLEBLOCK
100
AcDbText
 10
80.000
 20
-800.000
 30
0.000
 40
90.000
  1
UNIT PLAN C 009
 72
0.000
 11
80.000
 21
-800.000
 31
0.000
  0
TEXT
  5
2A4
100
AcDbEntity
  8
TITLEBLOCK
100
AcDbText
 10
80.000
 20
-950.000
 30
0.000
 40
65.000
  1
SHEET: A-001
 72
0.000
 11
80.000
 21
-950.000
 31
0.000
  0
TEXT
  5
2A5
100
AcDbEntity
  8
TITLEBLOCK
100
AcDbText
 10
80.000
 20
-1080.000
 30
0.000
 40
65.000
  1
SCALE: 1:100
 72
0.000
 11
80.000
 21
-1080.000
 31
0.000
  0
TEXT
  5
2A6
100
AcDbEntity
  8
TITLEBLOCK
100
AcDbText
 10
2480.000
 20
-800.000
 30
0.000
 40
80.000
  1
AURABRAIN
 72
0.000
 11
2480.000
 21
-800.000
 31
0.000
  0
TEXT
  5
2A7
100
AcDbEntity
  8
TITLEBLOCK
100
AcDbText
 10
2480.000
 20
-950.000
 30
0.000
 40
55.000
  1
DATE: 2026-07-15
 72
0.000
 11
2480.000
 21
-950.000
 31
0.000
  0
TEXT
  5
2A8
100
AcDbEntity
  8
TITLEBLOCK
100
AcDbText
 10
2480.000
 20
-1080.000
 30
0.000
 40
55.000
  1
ALL DIMS IN MM
 72
0.000
 11
2480.000
 21
-1080.000
 31
0.000
  0
CIRCLE
  5
2A9
100
AcDbEntity
  8
ANNOTATIONS
100
AcDbCircle
 10
4600.000
 20
-1100.000
 30
0.000
 40
300.000
  0
LWPOLYLINE
  5
2AA
100
AcDbEntity
  8
ANNOTATIONS
100
AcDbPolyline
 90
4.000
 70
1.000
 10
4600.000
 20
-850.000
 10
4500.000
 20
-1250.000
 10
4600.000
 20
-1150.000
 10
4700.000
 20
-1250.000
  0
TEXT
  5
2AB
100
AcDbEntity
  8
ANNOTATIONS
100
AcDbText
 10
4600.000
 20
-750.000
 30
0.000
 40
100.000
  1
N
 72
1.000
 11
4600.000
 21
-750.000
 31
0.000
  0
ENDSEC
  0
SECTION
  2
OBJECTS
  0
ENDSEC
  0
EOF